<?xml version="1.0" encoding="UTF-8" standalone="no"?>
<!DOCTYPE svg PUBLIC "-//W3C//DTD SVG 1.1//EN" "http://www.w3.org/Graphics/SVG/1.1/DTD/svg11.dtd">
<svg width="100%" height="100%" viewBox="0 0 590 590" version="1.1" xmlns="http://www.w3.org/2000/svg" xmlns:xlink="http://www.w3.org/1999/xlink" xml:space="preserve" xmlns:serif="http://www.serif.com/" style="fill-rule:evenodd;clip-rule:evenodd;stroke-linejoin:round;stroke-miterlimit:2;">
    <g transform="matrix(1,0,0,1,-3644.676131,-2728.844906)">
        <g transform="matrix(1,0,0,1,1246.305135,0)">
            <g transform="matrix(1.44131,0,0,1.435856,1671.812491,243.32805)">
                <path d="M516.213,1800.65C500.27,1784.945 500.029,1759.202 515.674,1743.198C531.319,1727.195 556.965,1726.952 572.908,1742.657C647.925,1816.554 768.982,1816.554 843.999,1742.657C859.942,1726.952 885.587,1727.195 901.233,1743.198C916.878,1759.202 916.637,1784.945 900.694,1800.65C794.3,1905.455 622.607,1905.455 516.213,1800.65Z" style="fill:white;"/>
            </g>
            <g transform="matrix(1.428571,0,0,1.435856,1682.320595,243.32805)">
                <path d="M843.608,1743.215C859.384,1727.203 885.258,1726.945 901.352,1742.64C917.447,1758.336 917.706,1784.079 901.93,1800.092C827.73,1875.408 826.827,1997.142 901.716,2072.031C917.611,2087.926 917.545,2113.67 901.569,2129.484C885.593,2145.299 859.718,2145.234 843.822,2129.338C737.488,2023.004 738.252,1850.156 843.608,1743.215Z" style="fill:white;"/>
            </g>
            <g transform="matrix(1.428571,0,0,1.435856,1680.539933,243.32805)">
                <path d="M902.963,2072.031C918.858,2087.926 918.792,2113.67 902.816,2129.484C886.84,2145.299 860.964,2145.234 845.069,2129.338C769.975,2054.244 647.348,2054.244 572.254,2129.338C556.359,2145.234 530.483,2145.299 514.507,2129.484C498.531,2113.67 498.465,2087.926 514.36,2072.031C621.326,1965.065 795.997,1965.065 902.963,2072.031Z" style="fill:white;"/>
            </g>
            <g transform="matrix(1.428571,0,0,1.435856,1680.539933,243.32805)">
                <path d="M572.254,2129.338C556.359,2145.234 530.483,2145.299 514.507,2129.484C498.531,2113.67 498.465,2087.926 514.36,2072.031C589.249,1997.142 588.346,1875.408 514.146,1800.092C498.371,1784.079 498.63,1758.336 514.724,1742.64C530.818,1726.945 556.693,1727.203 572.468,1743.215C677.824,1850.156 678.588,2023.004 572.254,2129.338Z" style="fill:white;"/>
            </g>
        </g>
    </g>
</svg>
